<svg viewBox="0 0 1200 630" width="1200" height="630" xmlns="http://www.w3.org/2000/svg">
  <defs>
    <style>@import url('https://fonts.googleapis.com/css2?family=Space+Mono:wght@400;700&family=Syne:wght@800&family=Lora:ital,wght@1,400&display=swap');</style>
    <filter id="glow-title" x="-20%" y="-40%" width="140%" height="180%"><feGaussianBlur stdDeviation="10" result="b"/><feMerge><feMergeNode in="b"/><feMergeNode in="SourceGraphic"/></feMerge></filter>
    <filter id="glow-sm" x="-40%" y="-40%" width="180%" height="180%"><feGaussianBlur stdDeviation="5" result="b"/><feMerge><feMergeNode in="b"/><feMergeNode in="SourceGraphic"/></feMerge></filter>
    <filter id="glow-dot" x="-200%" y="-200%" width="500%" height="500%"><feGaussianBlur stdDeviation="8"/></filter>
    <pattern id="dp" width="40" height="40" patternUnits="userSpaceOnUse"><circle cx="20" cy="20" r="0.75" fill="#00f5ff" opacity="0.065"/></pattern>
    <pattern id="sc" width="1200" height="4" patternUnits="userSpaceOnUse"><rect y="2" width="1200" height="2" fill="#000" opacity="0.09"/></pattern>
    <radialGradient id="eye-haze" cx="50%" cy="50%" r="50%"><stop offset="0%" stop-color="#00f5ff" stop-opacity="0.12"/><stop offset="55%" stop-color="#00f5ff" stop-opacity="0.03"/><stop offset="100%" stop-color="#07070f" stop-opacity="0"/></radialGradient>
  </defs>
  <rect width="1200" height="630" fill="#07070f"/>
  <rect width="1200" height="630" fill="url(#dp)"/>
  <rect width="1200" height="630" fill="url(#sc)"/>
  <rect width="1200" height="3" fill="#00f5ff" opacity="0.55"/>
  <rect y="627" width="1200" height="3" fill="#00f5ff" opacity="0.32"/>
  <polyline points="28,72 28,28 72,28" fill="none" stroke="#00f5ff" stroke-width="1.5" opacity="0.48"/>
  <polyline points="1128,28 1172,28 1172,72" fill="none" stroke="#00f5ff" stroke-width="1.5" opacity="0.48"/>
  <polyline points="28,558 28,602 72,602" fill="none" stroke="#00f5ff" stroke-width="1.5" opacity="0.48"/>
  <polyline points="1128,602 1172,602 1172,558" fill="none" stroke="#00f5ff" stroke-width="1.5" opacity="0.48"/>
  <line x1="652" y1="50" x2="652" y2="580" stroke="#1a1a2e" stroke-width="1"/>
  <line x1="652" y1="50" x2="652" y2="580" stroke="#00f5ff" stroke-width="0.5" opacity="0.07"/>
  <text x="80" y="88" font-family="'Space Mono',monospace" font-size="11" fill="#00f5ff" letter-spacing="4" opacity="0.82">● LO QUE NO VES</text>
  <text x="76" y="232" font-family="'Syne','Arial Black','Impact',sans-serif" font-size="102" font-weight="800" fill="#e8e8f0">LO QUE</text>
  <text x="76" y="346" font-family="'Syne','Arial Black','Impact',sans-serif" font-size="102" font-weight="800" fill="#00f5ff" filter="url(#glow-title)">NO VES</text>
  <rect x="80" y="372" width="162" height="2" fill="#00f5ff" opacity="0.62"/>
  <rect x="245" y="372" width="55" height="1" fill="#00f5ff" opacity="0.18"/>
  <text x="80" y="410" font-family="'Lora',Georgia,serif" font-size="18" font-style="italic" fill="#e8e8f0" opacity="0.58">Donde el poder se vuelve transparente</text>
  <rect x="80" y="444" width="132" height="27" fill="none" stroke="#00f5ff" stroke-width="1" opacity="0.48"/>
  <text x="146" y="462" font-family="'Space Mono',monospace" font-size="9" fill="#00f5ff" text-anchor="middle" letter-spacing="2.5" opacity="0.82">PRIVACIDAD</text>
  <rect x="224" y="444" width="98" height="27" fill="none" stroke="#ffe600" stroke-width="1" opacity="0.48"/>
  <text x="273" y="462" font-family="'Space Mono',monospace" font-size="9" fill="#ffe600" text-anchor="middle" letter-spacing="2.5" opacity="0.82">DINERO</text>
  <rect x="334" y="444" width="88" height="27" fill="none" stroke="#ff3060" stroke-width="1" opacity="0.48"/>
  <text x="378" y="462" font-family="'Space Mono',monospace" font-size="9" fill="#ff3060" text-anchor="middle" letter-spacing="2.5" opacity="0.82">PODER</text>
  <line x1="80" y1="506" x2="620" y2="506" stroke="#1a1a2e" stroke-width="1"/>
  <text x="80" y="532" font-family="'Space Mono',monospace" font-size="9.5" fill="#4a4a6a" letter-spacing="2.5">INVESTIGACIONES SIN FILTROS</text>
  <text x="80" y="558" font-family="'Space Mono',monospace" font-size="12.5" fill="#00f5ff" letter-spacing="1.8" opacity="0.72">mundosintropico.github.io</text>
  <circle cx="920" cy="315" r="215" fill="url(#eye-haze)"/>
  <line x1="692" y1="315" x2="1152" y2="315" stroke="#00f5ff" stroke-width="0.5" opacity="0.1"/>
  <line x1="920" y1="88" x2="920" y2="542" stroke="#00f5ff" stroke-width="0.5" opacity="0.1"/>
  <circle cx="920" cy="315" r="200" fill="none" stroke="#00f5ff" stroke-width="0.5" stroke-dasharray="6 14" opacity="0.14"/>
  <circle cx="920" cy="315" r="178" fill="none" stroke="#00f5ff" stroke-width="0.8" opacity="0.12"/>
  <circle cx="920" cy="315" r="156" fill="none" stroke="#00f5ff" stroke-width="0.5" stroke-dasharray="3 10" opacity="0.2"/>
  <circle cx="920" cy="315" r="130" fill="none" stroke="#1a1a2e" stroke-width="22"/>
  <circle cx="920" cy="315" r="130" fill="none" stroke="#00f5ff" stroke-width="1" opacity="0.38"/>
  <circle cx="920" cy="315" r="119" fill="none" stroke="#00f5ff" stroke-width="0.5" opacity="0.14"/>
  <circle cx="920" cy="315" r="88" fill="#07070f"/>
  <circle cx="920" cy="315" r="88" fill="none" stroke="#00f5ff" stroke-width="2" opacity="0.6" filter="url(#glow-sm)"/>
  <circle cx="920" cy="315" r="73" fill="none" stroke="#00f5ff" stroke-width="0.5" opacity="0.15"/>
  <line x1="920" y1="226" x2="920" y2="250" stroke="#00f5ff" stroke-width="1.5" opacity="0.52"/>
  <line x1="920" y1="380" x2="920" y2="404" stroke="#00f5ff" stroke-width="1.5" opacity="0.52"/>
  <line x1="832" y1="315" x2="856" y2="315" stroke="#00f5ff" stroke-width="1.5" opacity="0.52"/>
  <line x1="984" y1="315" x2="1008" y2="315" stroke="#00f5ff" stroke-width="1.5" opacity="0.52"/>
  <line x1="1026" y1="422" x2="1034" y2="430" stroke="#00f5ff" stroke-width="1" opacity="0.28"/>
  <line x1="806" y1="422" x2="814" y2="430" stroke="#00f5ff" stroke-width="1" opacity="0.28"/>
  <line x1="806" y1="200" x2="814" y2="208" stroke="#00f5ff" stroke-width="1" opacity="0.28"/>
  <line x1="1026" y1="200" x2="1034" y2="208" stroke="#00f5ff" stroke-width="1" opacity="0.28"/>
  <circle cx="920" cy="315" r="54" fill="#04040d"/>
  <circle cx="920" cy="315" r="36" fill="#00f5ff" opacity="0.06"/>
  <circle cx="920" cy="315" r="22" fill="#00f5ff" opacity="0.11"/>
  <circle cx="920" cy="315" r="10" fill="#00f5ff" opacity="0.5" filter="url(#glow-dot)"/>
  <circle cx="920" cy="315" r="5" fill="#00f5ff" opacity="0.92"/>
  <circle cx="932" cy="302" r="4" fill="white" opacity="0.18"/>
  <text x="920" y="105" font-family="'Space Mono',monospace" font-size="8" fill="#00f5ff" opacity="0.26" text-anchor="middle">000°</text>
  <text x="1138" y="319" font-family="'Space Mono',monospace" font-size="8" fill="#00f5ff" opacity="0.26">090°</text>
  <text x="920" y="533" font-family="'Space Mono',monospace" font-size="8" fill="#00f5ff" opacity="0.26" text-anchor="middle">180°</text>
  <text x="695" y="319" font-family="'Space Mono',monospace" font-size="8" fill="#00f5ff" opacity="0.26" text-anchor="end">270°</text>
  <text x="746" y="206" font-family="'Space Mono',monospace" font-size="8" fill="#00f5ff" opacity="0.19" letter-spacing="1">0x7F2A · NODE_14</text>
  <text x="1000" y="196" font-family="'Space Mono',monospace" font-size="8" fill="#ffe600" opacity="0.17" letter-spacing="1">97.3B / MES</text>
  <text x="714" y="440" font-family="'Space Mono',monospace" font-size="8" fill="#ffe600" opacity="0.17" letter-spacing="1">SRV:ACTIVO</text>
  <text x="1016" y="450" font-family="'Space Mono',monospace" font-size="8" fill="#ff3060" opacity="0.2" letter-spacing="1">CAPA:03</text>
  <text x="838" y="148" font-family="'Space Mono',monospace" font-size="8" fill="#00f5ff" opacity="0.2" letter-spacing="1">850.000 · ACC</text>
  <text x="940" y="490" font-family="'Space Mono',monospace" font-size="8" fill="#00f5ff" opacity="0.17" letter-spacing="1">PRISM·91%</text>
  <path d="M 762 428 A 178 178 0 0 0 1078 428" fill="none" stroke="#ff3060" stroke-width="1" opacity="0.14"/>
  <text x="920" y="258" font-family="'Space Mono',monospace" font-size="8" fill="#00f5ff" opacity="0.35" text-anchor="middle" letter-spacing="3">SCAN ACTIVO</text>
</svg>
